<?xml version="1.0" encoding="UTF-8"?>
<svg xmlns="http://www.w3.org/2000/svg" width="132.02" height="135.54" viewBox="0 0 132.02 135.54">
  <title>favicon-icon</title>
  <path d="M10.17,85.63" fill="#eddd5e"></path>
  <polygon points="131.6 57.22 65.94 0 36.26 25.92 36.26 11.34 24.45 22.52 24.45 36.23 24.45 51.91 27.79 49 36.26 41.6 65.95 15.67 119.82 62.61 120.15 123.24 108.36 123.54 98.42 103.47 67 103.41 67.1 73.73 86.81 73.73 75.95 48.54 55.94 48.54 45.08 73.73 65.04 73.73 64.93 103.41 33.61 103.47 23.66 123.54 11.87 123.24 12.17 67.95 12.2 62.61 15.98 59.31 17.62 57.88 17.62 42.2 15.98 43.64 10.66 48.28 0.42 57.22 0 134.75 30.9 135.54 40.94 115.27 65.96 115.21 65.96 115.13 66.07 115.13 66.07 115.21 91.08 115.27 101.13 135.54 132.02 134.75 131.6 57.22" fill="#bb9a65" fill-rule="evenodd"></polygon>
</svg>
