<?xml version="1.0" encoding="UTF-8"?>
<svg xmlns="http://www.w3.org/2000/svg" width="596.33" height="135.54" viewBox="0 0 596.33 135.54">
  <title>logo</title>
  <path d="M10.18,85.64" transform="translate(-0.01 -0.01)" fill="#eddd5e"></path>
  <polygon points="131.6 57.22 65.94 0 36.26 25.92 36.26 11.34 24.45 22.52 24.45 36.23 24.45 51.91 27.79 49 36.26 41.6 65.95 15.67 119.82 62.61 120.15 123.24 108.36 123.54 98.42 103.47 67 103.41 67.1 73.73 86.81 73.73 75.95 48.54 55.94 48.54 45.08 73.73 65.04 73.73 64.93 103.41 33.61 103.47 23.66 123.54 11.87 123.24 12.17 67.95 12.2 62.61 15.98 59.31 17.62 57.88 17.62 42.2 15.98 43.64 10.66 48.28 0.42 57.22 0 134.75 30.9 135.54 40.94 115.27 65.96 115.21 65.96 115.13 66.07 115.13 66.07 115.21 91.08 115.27 101.13 135.54 132.02 134.75 131.6 57.22" fill="#bb9a65" fill-rule="evenodd"></polygon>
  <path d="M160.72,111.6l23-31.13L161.09,49.85h16.75L193,71.22h2.12l15.13-21.37h16.62L204.22,80.47l23,31.13H210.34L195.09,89.85H193L177.72,111.6Z" transform="translate(-0.01 -0.01)" fill="#403226"></path>
  <path d="M244.09,42a9.56,9.56,0,0,1-6.68-2.56,8.76,8.76,0,0,1-2.82-6.81,8.75,8.75,0,0,1,2.82-6.81,10.15,10.15,0,0,1,13.5,0,9,9,0,0,1,2.68,6.81,9,9,0,0,1-2.68,6.81A9.5,9.5,0,0,1,244.09,42ZM237,111.6V49.85h14.37V111.6Z" transform="translate(-0.01 -0.01)" fill="#403226"></path>
  <path d="M266.47,111.6V49.85h14.12v8.62h2.13a17.85,17.85,0,0,1,5.87-6.62q4.25-3.12,12.88-3.13A24.4,24.4,0,0,1,314.09,52a22.55,22.55,0,0,1,8.56,9,28.54,28.54,0,0,1,3.07,13.63v37H311.34V75.72q0-7.5-3.69-11.18t-10.43-3.69q-7.64,0-12,5.06t-4.38,14.44V111.6Z" transform="translate(-0.01 -0.01)" fill="#403226"></path>
  <path d="M362,111.6A13,13,0,0,1,352.4,108q-3.56-3.57-3.56-9.69V61.72H332.72V49.85h16.12V30h14.38V49.85H381V61.72H363.22V96c0,2.5,1.16,3.75,3.5,3.75h12.37V111.6Z" transform="translate(-0.01 -0.01)" fill="#403226"></path>
  <path d="M418.47,113.35a32.91,32.91,0,0,1-16.32-3.94,27.7,27.7,0,0,1-11-11.12,34.55,34.55,0,0,1-3.93-16.82V80a34.83,34.83,0,0,1,3.87-16.87A27.45,27.45,0,0,1,402,52a32.25,32.25,0,0,1,16.12-3.94A30.64,30.64,0,0,1,433.84,52a27.12,27.12,0,0,1,10.5,11.06,35.18,35.18,0,0,1,3.75,16.62v5.13H401.72a15.58,15.58,0,0,0,5.12,11.62,17.3,17.3,0,0,0,12,4.38q7,0,10.38-3.06a21.16,21.16,0,0,0,5.12-6.94L446.22,97a37.72,37.72,0,0,1-5.07,7.19,27.38,27.38,0,0,1-8.81,6.5Q426.84,113.35,418.47,113.35ZM401.84,74h31.63a13.87,13.87,0,0,0-4.69-9.75A16,16,0,0,0,418,60.6q-6.89,0-11,3.62A16,16,0,0,0,401.84,74Z" transform="translate(-0.01 -0.01)" fill="#403226"></path>
  <path d="M459.71,111.6V49.85h14.13V57H476a9.84,9.84,0,0,1,4.63-5.62,16.1,16.1,0,0,1,7.75-1.75h7.5V62.35h-7.75A15,15,0,0,0,478,65.66q-3.87,3.32-3.87,10.19V111.6Z" transform="translate(-0.01 -0.01)" fill="#403226"></path>
  <path d="M512.59,42a9.59,9.59,0,0,1-6.69-2.56,8.79,8.79,0,0,1-2.81-6.81,8.77,8.77,0,0,1,2.81-6.81,9.6,9.6,0,0,1,6.69-2.57,9.46,9.46,0,0,1,6.81,2.57,9,9,0,0,1,2.69,6.81,9,9,0,0,1-2.69,6.81A9.46,9.46,0,0,1,512.59,42Zm-7.13,69.63V49.85h14.38V111.6Z" transform="translate(-0.01 -0.01)" fill="#403226"></path>
  <path d="M564.21,113.35a35.27,35.27,0,0,1-16.56-3.81,28.36,28.36,0,0,1-11.5-10.88A32.64,32.64,0,0,1,532,81.72v-2a33,33,0,0,1,4.19-17,27.76,27.76,0,0,1,11.5-10.87,35.74,35.74,0,0,1,16.56-3.75,35.37,35.37,0,0,1,16.5,3.75,27.91,27.91,0,0,1,11.44,10.87,33,33,0,0,1,4.19,17v2a32.64,32.64,0,0,1-4.19,16.94,28.52,28.52,0,0,1-11.44,10.88A34.91,34.91,0,0,1,564.21,113.35Zm0-12.75a17.35,17.35,0,0,0,12.88-5.06q5-5.07,5-14.19V80.1q0-9.12-5-14.19a18.91,18.91,0,0,0-25.75,0q-5,5.07-5,14.19v1.25q0,9.12,5,14.19A17.31,17.31,0,0,0,564.21,100.6Z" transform="translate(-0.01 -0.01)" fill="#403226"></path>
</svg>
